<?xml version="1.0" standalone="no"?>
<!DOCTYPE svg PUBLIC "-//W3C//DTD SVG 20010904//EN"
 "http://www.w3.org/TR/2001/REC-SVG-20010904/DTD/svg10.dtd">
<svg version="1.0" xmlns="http://www.w3.org/2000/svg"
 width="2000.000000pt" height="419.000000pt" viewBox="0 0 2000.000000 419.000000"
 preserveAspectRatio="xMidYMid meet">

<g transform="translate(0.000000,419.000000) scale(0.100000,-0.100000)"
fill="#000000" stroke="none">
<path d="M1930 4179 c-588 -53 -1131 -351 -1482 -814 -209 -275 -341 -582
-404 -940 -28 -155 -26 -519 4 -680 114 -622 463 -1128 998 -1450 227 -136
479 -225 769 -271 150 -24 438 -24 595 0 461 71 859 272 1180 595 315 316 501
679 587 1141 25 136 25 535 0 670 -85 461 -273 825 -587 1141 -175 176 -343
296 -565 405 -336 164 -727 237 -1095 203z m1102 -1012 c67 -33 121 -90 154
-162 l24 -53 -2 -868 -3 -869 -23 -43 c-35 -66 -88 -119 -150 -149 l-57 -28
-865 0 -865 0 -50 25 c-73 35 -138 105 -164 173 -21 57 -21 63 -21 902 0 839
0 845 21 902 34 90 126 170 224 194 17 4 410 7 875 6 l845 -2 57 -28z"/>
<path d="M1788 2547 c-81 -183 -150 -340 -154 -349 -6 -17 8 -18 200 -18 124
0 206 -4 206 -10 0 -7 -207 -558 -310 -825 -10 -26 -9 -28 3 -15 9 8 205 249
437 535 l422 520 -241 3 -241 2 153 213 c84 116 163 227 176 245 l22 32 -263
0 -263 -1 -147 -332z"/>
<path d="M17243 3686 c-100 -32 -180 -101 -227 -194 -93 -183 -16 -407 172
-499 51 -25 67 -28 162 -28 95 0 111 3 162 28 279 137 279 535 0 668 -77 37
-198 48 -269 25z"/>
<path d="M8100 2065 l0 -1535 280 0 280 0 0 1535 0 1535 -280 0 -280 0 0
-1535z"/>
<path d="M13600 3160 l0 -440 -135 0 -135 0 0 -275 0 -275 135 0 135 0 0 -359
c0 -395 6 -470 52 -608 104 -316 361 -554 697 -645 66 -18 113 -22 369 -26
l292 -4 0 280 0 281 -267 3 -268 3 -66 31 c-111 53 -185 133 -228 247 -20 55
-21 74 -21 427 l0 370 425 0 425 0 0 275 0 275 -425 0 -425 0 0 440 0 440
-280 0 -280 0 0 -440z"/>
<path d="M5730 2000 l0 -1470 1005 0 1005 0 0 295 0 295 -715 0 -715 0 0 295
0 295 485 0 485 0 0 295 0 295 -485 0 -485 0 0 295 0 295 715 0 715 0 0 290 0
290 -1005 0 -1005 0 0 -1470z"/>
<path d="M9887 2795 c-463 -88 -809 -441 -892 -911 -23 -133 -21 -356 5 -483
48 -236 147 -426 306 -585 337 -337 859 -423 1287 -210 149 74 275 173 367
289 l53 67 -205 205 -205 205 -30 -54 c-68 -120 -220 -228 -361 -257 -90 -19
-247 -12 -240 11 2 5 235 288 518 629 283 341 516 626 518 633 4 19 -106 144
-187 212 -131 110 -269 182 -444 230 -118 33 -365 42 -490 19z m313 -556 c27
-6 50 -13 50 -16 0 -9 -641 -858 -650 -861 -12 -5 -37 82 -51 179 -40 276 74
530 289 642 114 60 247 81 362 56z"/>
<path d="M12088 2795 c-152 -29 -325 -108 -458 -210 -73 -56 -197 -187 -247
-261 -163 -239 -244 -556 -213 -832 78 -711 786 -1167 1465 -946 202 66 394
199 530 367 l39 48 -206 206 -206 206 -22 -44 c-35 -68 -154 -180 -230 -217
-101 -49 -180 -65 -285 -59 -234 14 -424 161 -501 387 -15 43 -19 82 -18 185
1 112 4 141 27 210 35 105 73 170 147 248 247 265 679 200 851 -127 18 -34 34
-63 36 -66 5 -5 403 392 403 403 0 21 -92 140 -160 207 -131 130 -297 224
-481 276 -119 33 -349 42 -471 19z"/>
<path d="M18866 2794 c-441 -87 -789 -438 -898 -906 -18 -78 -22 -123 -22
-278 0 -169 3 -194 27 -285 106 -393 412 -694 815 -803 87 -23 114 -26 272
-25 156 0 186 3 271 25 134 36 229 78 339 149 92 59 246 201 285 262 l18 29
-203 203 -204 204 -29 -52 c-66 -114 -211 -219 -348 -252 -297 -70 -595 113
-668 409 -17 68 -15 232 4 311 86 370 442 562 764 410 94 -45 204 -152 251
-244 l32 -64 203 203 c112 112 201 208 198 214 -31 54 -104 144 -169 206 -158
151 -340 244 -556 285 -98 18 -288 18 -382 -1z"/>
<path d="M15320 1630 l0 -1100 280 0 280 0 0 623 c0 677 2 697 57 799 55 101
173 185 293 208 29 5 169 10 311 10 l259 0 0 276 0 275 -337 -3 c-335 -4 -339
-4 -427 -32 -109 -33 -243 -101 -330 -167 l-65 -49 -92 130 -92 130 -69 0 -68
0 0 -1100z"/>
<path d="M17070 1630 l0 -1100 280 0 280 0 0 1100 0 1100 -280 0 -280 0 0
-1100z"/>
</g>
</svg>
