<?xml version="1.0" standalone="no"?>
<!DOCTYPE svg PUBLIC "-//W3C//DTD SVG 20010904//EN"
 "http://www.w3.org/TR/2001/REC-SVG-20010904/DTD/svg10.dtd">
<svg version="1.0" xmlns="http://www.w3.org/2000/svg"
 width="128.000000pt" height="128.000000pt" viewBox="0 0 128.000000 128.000000"
 preserveAspectRatio="xMidYMid meet">

<g transform="translate(0.000000,128.000000) scale(0.100000,-0.100000)"
fill="#000000" stroke="none">
<path d="M202 1130 c-18 -11 -41 -34 -52 -52 -19 -32 -20 -51 -20 -443 0 -392
1 -411 20 -443 11 -18 34 -41 52 -52 32 -19 51 -20 443 -20 392 0 411 1 443
20 18 11 41 34 52 52 19 32 20 51 20 443 0 392 -1 411 -20 443 -11 18 -34 41
-52 52 -32 19 -51 20 -443 20 -392 0 -411 -1 -443 -20z m598 -136 c0 -3 -34
-53 -75 -110 -41 -57 -75 -106 -75 -109 0 -2 49 -6 108 -7 l109 -3 -196 -241
c-108 -133 -198 -240 -200 -238 -1 1 29 87 68 189 39 103 71 188 71 191 0 2
-43 4 -95 4 -52 0 -95 3 -95 6 0 3 25 63 56 133 31 69 63 141 70 159 l14 32
120 0 c66 0 120 -3 120 -6z"/>
</g>
</svg>
